<svg width="24" height="24" fill="none" xmlns="http://www.w3.org/2000/svg"><path d="M22.707 1.293l.707-.707-.707.707zm0 1.414l.707.707-.707-.707zm-1.414-1.414l-.707-.707.707.707zM12 10.586l-.707.707a1 1 0 001.414 0L12 10.586zM2.707 1.293L2 2l.707-.707zm-1.414 0L2 2l-.707-.707zm0 1.414L2 2l-.707.707zM10.586 12l.707.707a1 1 0 000-1.414l-.707.707zm-9.293 9.293l-.707-.707.707.707zm0 1.414l-.707.707.707-.707zm1.414 0l.707.707-.707-.707zM12 13.414l.707-.707a1 1 0 00-1.414 0l.707.707zm9.293 9.293l-.707.707.707-.707zm1.414 0l.707.707-.707-.707zm0-1.414l.707-.707-.707.707zM13.414 12l-.707-.707a1 1 0 000 1.414l.707-.707zM22 2l1.414 1.414a2 2 0 000-2.828L22 2zm0 0L23.414.586a2 2 0 00-2.828 0L22 2zm-9.293 9.293L22 2 20.586.586l-9.293 9.293 1.414 1.414zM2 2l9.293 9.293 1.414-1.414L3.414.586 2 2zm0 0L3.414.586a2 2 0 00-2.828 0L2 2zm0 0L.586.586a2 2 0 000 2.828L2 2zm9.293 9.293L2 2 .586 3.414l9.293 9.293 1.414-1.414zM2 22l9.293-9.293-1.414-1.414-9.293 9.293L2 22zm0 0L.586 20.586a2 2 0 000 2.828L2 22zm0 0L.586 23.414a2 2 0 002.828 0L2 22zm9.293-9.293L2 22l1.414 1.414 9.293-9.293-1.414-1.414zM22 22l-9.293-9.293-1.414 1.414 9.293 9.293L22 22zm0 0l-1.414 1.414a2 2 0 002.828 0L22 22zm0 0l1.414 1.414a2 2 0 000-2.828L22 22zm-9.293-9.293L22 22l1.414-1.414-9.293-9.293-1.414 1.414zM22 2l-9.293 9.293 1.414 1.414 9.293-9.293L22 2z" fill="#000"/></svg>